<svg width="57" height="57" viewBox="0 0 57 57" fill="none" xmlns="http://www.w3.org/2000/svg">
<path d="M28.5 57C44.2401 57 57 44.2401 57 28.5C57 12.7599 44.2401 0 28.5 0C12.7599 0 0 12.7599 0 28.5C0 44.2401 12.7599 57 28.5 57Z" fill="#FFD93B"/>
<path d="M57 28.5C57 44.2462 44.2374 57 28.5 57C19.5404 57 11.5425 52.8675 6.31458 46.3926C11.2041 50.347 17.4296 52.7072 24.2072 52.7072C39.9446 52.7072 52.7072 39.9534 52.7072 24.2072C52.7072 17.4295 50.3471 11.204 46.3927 6.31451C52.8586 11.5425 57 19.5403 57 28.5Z" fill="#F4C534"/>
<path d="M48.0172 26.1327C49.2925 28.8776 34.4975 31.7187 33.1437 28.5534C32.7786 27.5381 33.988 25.8655 38.2915 24.0237C41.3357 22.6486 43.6923 21.6564 44.2374 22.385C44.6809 22.9781 43.5569 24.7291 41.1558 26.2146C44.7343 25.7088 47.6449 25.2973 48.0172 26.1327Z" fill="#3E4347"/>
<path d="M26.7437 26.578C26.7437 31.5156 22.7608 35.4967 17.825 35.4967C12.9087 35.4967 8.90625 31.5156 8.90625 26.578C8.90625 21.6618 12.9087 17.6593 17.825 17.6593C22.7608 17.6593 26.7437 21.6618 26.7437 26.578Z" fill="#F4C534"/>
<path d="M25.5164 26.5781C25.2688 30.5342 21.6297 33.7316 17.3761 33.7316C13.1225 33.7316 9.88595 30.5342 10.1335 26.5781C10.3811 22.6219 14.0202 19.4246 18.2739 19.4246C22.5275 19.4246 25.764 22.6219 25.5164 26.5781Z" fill="white"/>
<path d="M23.0067 26.334C23.0067 28.7102 21.0776 30.6606 18.68 30.682C16.302 30.682 14.3516 28.7315 14.3516 26.3554C14.3516 23.9364 16.302 22.0073 18.6996 22.0073C21.0776 22.0073 23.0067 23.9578 23.0067 26.334Z" fill="#3E4347"/>
<path d="M21.1791 25.5004C20.8139 25.8673 20.1424 25.805 19.6757 25.3383C19.2286 24.8716 19.1467 24.2001 19.5136 23.8349C19.9002 23.4698 20.5699 23.5303 21.0384 23.997C21.4837 24.4655 21.5638 25.1352 21.1791 25.5004Z" fill="#5A5F63"/>
<path d="M41.9093 34.9232C40.9723 34.1929 37.3938 42.3385 30.1851 44.3888C26.5424 45.6748 23.0138 45.0193 20.3704 44.2356C18.4146 43.4821 18.0476 45.1957 20.0444 46.8968C22.8998 48.7599 26.888 51.0916 31.4355 49.6185C40.4843 46.781 43.0439 35.2919 41.9093 34.9232Z" fill="#3E4347"/>
<path d="M31.5371 16.3715C33.8794 15.0444 38.7654 12.8588 43.9025 14.0719C44.4458 14.2001 44.8591 13.4734 44.4013 13.1545C38.9702 9.38005 34.38 9.9073 30.7996 15.65C30.5218 16.0971 31.0793 16.6297 31.5371 16.3715Z" fill="#3E4347"/>
<path d="M25.463 16.3715C23.1207 15.0444 18.2347 12.8588 13.0976 14.0719C12.5543 14.2001 12.141 13.4734 12.5988 13.1545C18.0298 9.38005 22.6201 9.9073 26.2004 15.65C26.4783 16.0971 25.9208 16.6297 25.463 16.3715Z" fill="#3E4347"/>
</svg>
