<svg width="28" height="35" viewBox="0 0 28 35" fill="none" xmlns="http://www.w3.org/2000/svg">
<path d="M27.2986 29.4892L25.3452 7.49264C25.3034 7.00429 24.8918 6.63455 24.4104 6.63455H20.392C20.3362 2.96497 17.3363 0 13.6528 0C9.96926 0 6.96941 2.96497 6.9136 6.63455H2.8952C2.40685 6.63455 2.00222 7.00429 1.96037 7.49264L0.00697655 29.4892C0.00697655 29.5171 0 29.545 0 29.5729C0 32.0774 2.29523 34.1145 5.12067 34.1145H22.1849C25.0104 34.1145 27.3056 32.0774 27.3056 29.5729C27.3056 29.545 27.3056 29.5171 27.2986 29.4892ZM13.6528 1.88363C16.2968 1.88363 18.4526 4.00445 18.5084 6.63455H8.79723C8.85304 4.00445 11.0087 1.88363 13.6528 1.88363ZM22.1849 32.2309H5.12067C3.34867 32.2309 1.91153 31.0589 1.88363 29.6148L3.7533 8.52515H6.90663V11.3855C6.90663 11.9087 7.32521 12.3273 7.84844 12.3273C8.37167 12.3273 8.79025 11.9087 8.79025 11.3855V8.52515H18.5084V11.3855C18.5084 11.9087 18.9269 12.3273 19.4502 12.3273C19.9734 12.3273 20.392 11.9087 20.392 11.3855V8.52515H23.5453L25.422 29.6148C25.3941 31.0589 23.9499 32.2309 22.1849 32.2309Z" fill="#727272"/>
</svg>
