<svg width="34" height="36" viewBox="0 0 34 36" fill="none" xmlns="http://www.w3.org/2000/svg">
<path d="M33.1238 34.3238H31.5936V12.1065C31.5936 11.0724 30.7523 10.2312 29.7182 10.2312H26.2981C25.264 10.2312 24.4227 11.0725 24.4227 12.1065V34.3238H20.5374V22.1727C20.5374 21.1386 19.6962 20.2973 18.6621 20.2973H15.2419C14.2078 20.2973 13.3666 21.1387 13.3666 22.1727V34.3238H9.48126V28.0309C9.48126 26.9967 8.63991 26.1555 7.60587 26.1555H4.18569C3.15158 26.1555 2.3103 26.9968 2.3103 28.0309V34.3238H0.697639C0.312333 34.3238 0 34.6362 0 35.0215C0 35.4068 0.312333 35.7191 0.697639 35.7191H33.1238C33.5091 35.7191 33.8214 35.4068 33.8214 35.0215C33.8214 34.6362 33.5091 34.3238 33.1238 34.3238ZM8.08584 34.3238H3.70551V28.0309C3.70551 27.7661 3.92087 27.5507 4.18562 27.5507H7.60573C7.87048 27.5507 8.08584 27.7661 8.08584 28.0309V34.3238ZM19.1421 34.3238H14.7618V22.1727C14.7618 21.908 14.9771 21.6926 15.2419 21.6926H18.662C18.9267 21.6926 19.1421 21.908 19.1421 22.1727V34.3238ZM30.1983 34.3238H25.818V12.1065C25.818 11.8418 26.0334 11.6264 26.2981 11.6264H29.7182C29.983 11.6264 30.1983 11.8418 30.1983 12.1065V34.3238Z" fill="#727272"/>
<path d="M31.592 0.733637C31.6017 0.543251 31.5348 0.349657 31.3894 0.204269C31.244 0.0588807 31.0504 -0.00816238 30.86 0.00167433C30.8488 0.00118599 30.8377 0 30.8262 0H26.6055C26.2202 0 25.9079 0.312333 25.9079 0.697639C25.9079 1.08294 26.2202 1.39528 26.6055 1.39528H29.2117L22.315 8.292L19.7142 5.6912C19.5834 5.56039 19.406 5.48686 19.2209 5.48686C19.0359 5.48686 18.8584 5.56039 18.7276 5.6912L6.18625 18.2327C5.91383 18.5051 5.91383 18.9468 6.18625 19.2193C6.3225 19.3554 6.50103 19.4235 6.67955 19.4235C6.85808 19.4235 7.03668 19.3554 7.17286 19.2192L19.2209 7.17103L21.8217 9.77183C22.0942 10.0443 22.5359 10.0443 22.8084 9.77183L30.1984 2.38195V4.74067C30.1984 5.12597 30.5107 5.4383 30.896 5.4383C31.2813 5.4383 31.5936 5.12597 31.5936 4.74067V0.767403C31.5936 0.756031 31.5924 0.744939 31.592 0.733637Z" fill="#727272"/>
</svg>
