<svg width="36" height="36" viewBox="0 0 36 36" fill="none" xmlns="http://www.w3.org/2000/svg">
<path d="M18.9804 35.7191H16.7387C14.9256 35.7191 13.4504 34.244 13.4504 32.4309V31.6725C12.6796 31.4263 11.9307 31.1154 11.2112 30.7431L10.6737 31.2805C9.37201 32.5839 7.28684 32.5456 6.02293 31.28L4.43852 29.6957C3.17237 28.4309 3.13596 26.3465 4.43894 25.0449L4.97598 24.5078C4.60365 23.7884 4.29285 23.0396 4.04651 22.2686H3.28818C1.47516 22.2686 0 20.7935 0 18.9805V16.7387C0 14.9256 1.47516 13.4505 3.28825 13.4505H4.04659C4.29292 12.6796 4.60372 11.9307 4.97605 11.2113L4.43859 10.6739C3.13638 9.37306 3.1723 7.28837 4.43901 6.02307L6.02355 4.43859C7.2904 3.17 9.37508 3.13833 10.6743 4.43901L11.2113 4.97598C11.9307 4.60372 12.6797 4.29285 13.4505 4.04651V3.28818C13.4505 1.47509 14.9256 0 16.7387 0H18.9805C20.7935 0 22.2686 1.47509 22.2686 3.28818V4.04659C23.0395 4.29285 23.7884 4.60372 24.5078 4.97605L25.0453 4.43859C26.347 3.13526 28.4322 3.17349 29.6961 4.43908L31.2805 6.02341C32.5467 7.28816 32.5831 9.37264 31.2801 10.6742L30.7431 11.2113C31.1154 11.9307 31.4262 12.6795 31.6725 13.4505H32.4309C34.244 13.4505 35.7191 14.9256 35.7191 16.7387V18.9805C35.7191 20.7935 34.244 22.2686 32.4309 22.2686H31.6725C31.4262 23.0395 31.1154 23.7884 30.7431 24.5078L31.2805 25.0453C32.5827 26.3461 32.5468 28.4308 31.2801 29.6961L29.6956 31.2806C28.4287 32.5492 26.344 32.5809 25.0448 31.2802L24.5078 30.7432C23.7884 31.1155 23.0395 31.4263 22.2686 31.6727V32.4311C22.2686 34.244 20.7935 35.7191 18.9804 35.7191ZM11.5611 28.5453C12.5606 29.1364 13.6363 29.583 14.7584 29.8725C15.2205 29.9918 15.5434 30.4085 15.5434 30.8858V32.4309C15.5434 33.09 16.0797 33.6262 16.7387 33.6262H18.9805C19.6395 33.6262 20.1758 33.09 20.1758 32.4309V30.8858C20.1758 30.4085 20.4987 29.9918 20.9608 29.8725C22.0829 29.583 23.1586 29.1364 24.1581 28.5453C24.5694 28.3021 25.093 28.3682 25.4308 28.7061L26.5253 29.8006C26.9972 30.2731 27.7549 30.2621 28.2152 29.8011L29.8008 28.2157C30.2599 27.757 30.2753 26.9991 29.8012 26.5256L28.7062 25.4307C28.3684 25.0929 28.3023 24.5692 28.5454 24.158C29.1365 23.1586 29.583 22.0829 29.8726 20.9607C29.9919 20.4986 30.4087 20.1758 30.8859 20.1758H32.4309C33.09 20.1758 33.6263 19.6396 33.6263 18.9805V16.7387C33.6263 16.0797 33.09 15.5435 32.4309 15.5435H30.8859C30.4086 15.5435 29.9919 15.2206 29.8726 14.7586C29.583 13.6364 29.1365 12.5606 28.5454 11.5612C28.3023 11.15 28.3684 10.6264 28.7062 10.2886L29.8008 9.19404C30.2739 8.72146 30.2616 7.96383 29.8012 7.50401L28.2158 5.91863C27.7563 5.45847 26.9983 5.445 26.5258 5.91821L25.4309 7.01315C25.0931 7.35102 24.5693 7.41716 24.1582 7.17396C23.1587 6.58285 22.0829 6.13629 20.9608 5.8467C20.4987 5.72748 20.1759 5.31071 20.1759 4.83345V3.28818C20.1759 2.62912 19.6396 2.09292 18.9805 2.09292H16.7388C16.0797 2.09292 15.5435 2.62912 15.5435 3.28818V4.83331C15.5435 5.31057 15.2206 5.72734 14.7585 5.84656C13.6364 6.13615 12.5606 6.58271 11.5611 7.17382C11.1498 7.41695 10.6262 7.35081 10.2884 7.01302L9.19397 5.91849C8.72209 5.44605 7.96425 5.457 7.50401 5.918L5.91849 7.50346C5.4593 7.96208 5.44396 8.71993 5.91807 9.19349L7.01302 10.2884C7.35081 10.6262 7.41695 11.1499 7.17382 11.5611C6.58271 12.5605 6.13622 13.6363 5.84663 14.7584C5.72734 15.2205 5.31057 15.5433 4.83338 15.5433H3.28825C2.62919 15.5434 2.09292 16.0796 2.09292 16.7387V18.9805C2.09292 19.6395 2.62919 20.1757 3.28825 20.1757H4.83331C5.31057 20.1757 5.72727 20.4986 5.84656 20.9606C6.13615 22.0828 6.58271 23.1585 7.17375 24.158C7.41688 24.5692 7.35074 25.0928 7.01295 25.4306L5.91842 26.5251C5.44528 26.9977 5.45763 27.7554 5.918 28.2152L7.50339 29.8006C7.96292 30.2607 8.72084 30.2742 9.19342 29.801L10.2883 28.706C10.5372 28.4572 11.0551 28.246 11.5611 28.5453Z" fill="#727272"/>
<path d="M17.8596 25.6313C13.5742 25.6313 10.0879 22.1449 10.0879 17.8596C10.0879 13.5742 13.5742 10.0879 17.8596 10.0879C22.145 10.0879 25.6313 13.5742 25.6313 17.8596C25.6313 22.1449 22.145 25.6313 17.8596 25.6313ZM17.8596 12.1808C14.7282 12.1808 12.1808 14.7283 12.1808 17.8596C12.1808 20.9908 14.7283 23.5383 17.8596 23.5383C20.9909 23.5383 23.5384 20.9908 23.5384 17.8596C23.5384 14.7283 20.9909 12.1808 17.8596 12.1808Z" fill="#727272"/>
</svg>
