<svg width="36" height="36" viewBox="0 0 36 36" fill="none" xmlns="http://www.w3.org/2000/svg">
<path d="M26.9289 16.0457C27.6995 16.0457 28.3242 15.421 28.3242 14.6504C28.3242 13.8798 27.6995 13.2551 26.9289 13.2551C26.1583 13.2551 25.5336 13.8798 25.5336 14.6504C25.5336 15.421 26.1583 16.0457 26.9289 16.0457Z" fill="#727272"/>
<path d="M30.138 2.79056H28.3241V1.39528C28.3241 0.624666 27.6995 0 26.9289 0C26.1583 0 25.5336 0.624666 25.5336 1.39528V2.79056H19.1851V1.39528C19.1851 0.624666 18.5604 0 17.7898 0C17.0192 0 16.3945 0.624666 16.3945 1.39528V2.79056H10.1158V1.39528C10.1158 0.624666 9.4911 0 8.72049 0C7.94987 0 7.32521 0.624666 7.32521 1.39528V2.79056H5.58111C2.50369 2.79056 0 5.29424 0 8.37167V30.138C0 33.2154 2.50369 35.7191 5.58111 35.7191H16.255C17.0256 35.7191 17.6503 35.0944 17.6503 34.3238C17.6503 33.5532 17.0256 32.9286 16.255 32.9286H5.58111C4.0424 32.9286 2.79056 31.6767 2.79056 30.138V8.37167C2.79056 6.83295 4.0424 5.58111 5.58111 5.58111H7.32521V6.97639C7.32521 7.747 7.94987 8.37167 8.72049 8.37167C9.4911 8.37167 10.1158 7.747 10.1158 6.97639V5.58111H16.3945V6.97639C16.3945 7.747 17.0192 8.37167 17.7898 8.37167C18.5604 8.37167 19.1851 7.747 19.1851 6.97639V5.58111H25.5336V6.97639C25.5336 7.747 26.1583 8.37167 26.9289 8.37167C27.6995 8.37167 28.3241 7.747 28.3241 6.97639V5.58111H30.138C31.6767 5.58111 32.9286 6.83295 32.9286 8.37167V16.3248C32.9286 17.0954 33.5532 17.72 34.3238 17.72C35.0944 17.72 35.7191 17.0954 35.7191 16.3248V8.37167C35.7191 5.29424 33.2154 2.79056 30.138 2.79056Z" fill="#727272"/>
<path d="M27.2777 18.8362C22.6231 18.8362 18.8363 22.623 18.8363 27.2777C18.8363 31.9323 22.6231 35.7191 27.2777 35.7191C31.9324 35.7191 35.7191 31.9323 35.7191 27.2777C35.7191 22.623 31.9324 18.8362 27.2777 18.8362ZM27.2777 32.9286C24.1618 32.9286 21.6268 30.3936 21.6268 27.2777C21.6268 24.1617 24.1618 21.6268 27.2777 21.6268C30.3936 21.6268 32.9286 24.1617 32.9286 27.2777C32.9286 30.3936 30.3936 32.9286 27.2777 32.9286Z" fill="#727272"/>
<path d="M29.3008 25.8824H28.673V24.4174C28.673 23.6468 28.0483 23.0221 27.2777 23.0221C26.5071 23.0221 25.8824 23.6468 25.8824 24.4174V27.2777C25.8824 28.0483 26.5071 28.673 27.2777 28.673H29.3008C30.0715 28.673 30.6961 28.0483 30.6961 27.2777C30.6961 26.5071 30.0715 25.8824 29.3008 25.8824Z" fill="#727272"/>
<path d="M20.8594 16.0457C21.63 16.0457 22.2547 15.421 22.2547 14.6504C22.2547 13.8798 21.63 13.2551 20.8594 13.2551C20.0888 13.2551 19.4641 13.8798 19.4641 14.6504C19.4641 15.421 20.0888 16.0457 20.8594 16.0457Z" fill="#727272"/>
<path d="M14.79 22.1152C15.5606 22.1152 16.1852 21.4905 16.1852 20.7199C16.1852 19.9493 15.5606 19.3246 14.79 19.3246C14.0194 19.3246 13.3947 19.9493 13.3947 20.7199C13.3947 21.4905 14.0194 22.1152 14.79 22.1152Z" fill="#727272"/>
<path d="M8.72053 16.0457C9.49112 16.0457 10.1158 15.421 10.1158 14.6504C10.1158 13.8798 9.49112 13.2551 8.72053 13.2551C7.94994 13.2551 7.32526 13.8798 7.32526 14.6504C7.32526 15.421 7.94994 16.0457 8.72053 16.0457Z" fill="#727272"/>
<path d="M8.72053 22.1152C9.49112 22.1152 10.1158 21.4905 10.1158 20.7199C10.1158 19.9493 9.49112 19.3246 8.72053 19.3246C7.94994 19.3246 7.32526 19.9493 7.32526 20.7199C7.32526 21.4905 7.94994 22.1152 8.72053 22.1152Z" fill="#727272"/>
<path d="M8.72053 28.1846C9.49112 28.1846 10.1158 27.5599 10.1158 26.7893C10.1158 26.0187 9.49112 25.3941 8.72053 25.3941C7.94994 25.3941 7.32526 26.0187 7.32526 26.7893C7.32526 27.5599 7.94994 28.1846 8.72053 28.1846Z" fill="#727272"/>
<path d="M14.79 28.1846C15.5606 28.1846 16.1852 27.5599 16.1852 26.7893C16.1852 26.0187 15.5606 25.3941 14.79 25.3941C14.0194 25.3941 13.3947 26.0187 13.3947 26.7893C13.3947 27.5599 14.0194 28.1846 14.79 28.1846Z" fill="#727272"/>
<path d="M14.79 16.0457C15.5606 16.0457 16.1852 15.421 16.1852 14.6504C16.1852 13.8798 15.5606 13.2551 14.79 13.2551C14.0194 13.2551 13.3947 13.8798 13.3947 14.6504C13.3947 15.421 14.0194 16.0457 14.79 16.0457Z" fill="#727272"/>
</svg>
