<svg width="34" height="33" viewBox="0 0 34 33" fill="none" xmlns="http://www.w3.org/2000/svg">
<path d="M18.9758 11.7527H14.5109C14.2027 11.7527 13.9528 12.0026 13.9528 12.3108V27.9379C13.9528 28.2461 14.2027 28.496 14.5109 28.496H18.9758C19.284 28.496 19.5339 28.2461 19.5339 27.9379V12.3108C19.5339 12.0025 19.284 11.7527 18.9758 11.7527ZM18.4177 27.3798H15.069V12.8689H18.4177V27.3798Z" fill="#727272"/>
<path d="M12.2784 17.3338H7.81354C7.50533 17.3338 7.25543 17.5837 7.25543 17.8919V27.9379C7.25543 28.2461 7.50533 28.496 7.81354 28.496H12.2784C12.5866 28.496 12.8365 28.2461 12.8365 27.9379V17.8919C12.8365 17.5836 12.5866 17.3338 12.2784 17.3338ZM11.7203 27.3798H8.37165V18.45H11.7203V27.3798Z" fill="#727272"/>
<path d="M30.1705 5.93761e-05C28.9286 -0.0088704 27.9146 0.990567 27.9057 2.23243C27.9012 2.85947 28.1587 3.45993 28.6161 3.88884L23.9838 12.385C23.5642 12.2688 23.1184 12.2894 22.7113 12.4436L18.4021 5.9768C19.2277 5.06115 19.1547 3.64948 18.239 2.82389C17.3233 1.99831 15.9117 2.07121 15.0861 2.98693C14.4795 3.65973 14.3396 4.63238 14.7319 5.4489L11.3436 8.26896C10.4141 7.59093 9.11927 7.74266 8.37168 8.61722L5.53033 7.19627C5.78804 5.99054 5.01945 4.80421 3.81379 4.54657C2.60806 4.28886 1.42173 5.05738 1.16409 6.26311C0.906382 7.46884 1.6749 8.65518 2.88063 8.91281C3.03446 8.94567 3.19136 8.96221 3.34868 8.96214C3.99225 8.96004 4.60317 8.67862 5.02301 8.19083L7.86435 9.61178C7.59625 10.8152 8.35451 12.0082 9.55794 12.2763C10.7614 12.5444 11.9543 11.7861 12.2224 10.5827C12.3315 10.0933 12.2726 9.58143 12.0552 9.12957L15.4435 6.30944C16.0275 6.74162 16.7899 6.85073 17.4717 6.59965L21.7797 13.0665C20.9563 13.9842 21.0328 15.3956 21.9505 16.219C22.8682 17.0425 24.2797 16.966 25.1031 16.0483C25.9164 15.1418 25.8532 13.7509 24.961 12.9219L29.5934 4.42581C29.7713 4.47227 29.9543 4.49627 30.1381 4.49725C31.3799 4.50618 32.3939 3.50674 32.4028 2.26487C32.4118 1.02301 31.4122 0.00905892 30.1705 5.93761e-05ZM3.34868 7.84592C2.73217 7.84592 2.23245 7.3462 2.23245 6.72969C2.23245 6.11319 2.73217 5.61347 3.34868 5.61347C3.96518 5.61347 4.4649 6.11319 4.4649 6.72969C4.4649 7.3462 3.96518 7.84592 3.34868 7.84592ZM10.046 11.1946C9.42951 11.1946 8.92979 10.6949 8.92979 10.0784C8.92979 9.46186 9.42951 8.96214 10.046 8.96214C10.6625 8.96214 11.1622 9.46186 11.1622 10.0784C11.1622 10.6949 10.6625 11.1946 10.046 11.1946ZM16.7433 5.61347C16.1268 5.61347 15.6271 5.11375 15.6271 4.49725C15.6271 3.88075 16.1268 3.38103 16.7433 3.38103C17.3598 3.38103 17.8596 3.88075 17.8596 4.49725C17.8596 5.11375 17.3598 5.61347 16.7433 5.61347ZM23.4407 15.6595C22.8242 15.6595 22.3245 15.1598 22.3245 14.5432C22.3245 13.9267 22.8242 13.427 23.4407 13.427C24.0572 13.427 24.5569 13.9267 24.5569 14.5432C24.5569 15.1598 24.0572 15.6595 23.4407 15.6595ZM30.138 3.38103C29.5215 3.38103 29.0218 2.88131 29.0218 2.2648C29.0218 1.6483 29.5215 1.14858 30.138 1.14858C30.7545 1.14858 31.2542 1.6483 31.2542 2.2648C31.2542 2.88131 30.7545 3.38103 30.138 3.38103Z" fill="#727272"/>
<path d="M32.9286 29.0541H0.558111C0.249894 29.0541 0 29.304 0 29.6122V31.8447C0 32.1529 0.249894 32.4028 0.558111 32.4028H32.9286C33.2368 32.4028 33.4867 32.1529 33.4867 31.8447V29.6122C33.4867 29.304 33.2368 29.0541 32.9286 29.0541ZM32.3704 31.2866H1.11622V30.1704H32.3704V31.2866Z" fill="#727272"/>
</svg>
