<svg width="36" height="24" viewBox="0 0 36 24" fill="none" xmlns="http://www.w3.org/2000/svg">
<path d="M31.9984 0H3.72072C1.66987 0 0 1.66987 0 3.72079V20.0921C0 22.1429 1.66987 23.8128 3.72072 23.8128H31.9983C34.0492 23.8128 35.719 22.1429 35.719 20.0921V3.72079C35.7191 1.66987 34.0492 0 31.9984 0ZM34.2308 20.092C34.2308 21.3228 33.2292 22.3244 31.9984 22.3244H3.72072C2.48987 22.3244 1.48827 21.3228 1.48827 20.092V3.72079C1.48827 2.48994 2.48987 1.48834 3.72072 1.48834H31.9983C33.2292 1.48834 34.2308 2.48994 34.2308 3.72079V20.092H34.2308Z" fill="#727272"/>
<path d="M34.9749 4.46489H0.744171C0.333402 4.46489 0 4.79829 0 5.20906V9.67395C0 10.0847 0.333402 10.4181 0.744171 10.4181H34.975C35.3858 10.4181 35.7192 10.0847 35.7192 9.67395V5.20906C35.7191 4.79829 35.3857 4.46489 34.9749 4.46489ZM34.2308 8.92978H1.48827V5.95316H34.2308V8.92978H34.2308Z" fill="#727272"/>
<path d="M14.1389 14.883H5.20908C4.79831 14.883 4.4649 15.2164 4.4649 15.6272C4.4649 16.038 4.79831 16.3713 5.20908 16.3713H14.1389C14.5496 16.3713 14.883 16.0379 14.883 15.6271C14.883 15.2163 14.5496 14.883 14.1389 14.883Z" fill="#727272"/>
<path d="M14.1389 17.8596H5.20908C4.79831 17.8596 4.4649 18.193 4.4649 18.6037C4.4649 19.0145 4.79831 19.3479 5.20908 19.3479H14.1389C14.5496 19.3479 14.883 19.0145 14.883 18.6037C14.883 18.193 14.5496 17.8596 14.1389 17.8596Z" fill="#727272"/>
<path d="M29.0218 13.3947H27.5335C26.3027 13.3947 25.3011 14.3963 25.3011 15.6271V17.1154C25.3011 18.3462 26.3027 19.3478 27.5335 19.3478H29.0218C30.2526 19.3478 31.2542 18.3462 31.2542 17.1154V15.6271C31.2542 14.3963 30.2526 13.3947 29.0218 13.3947ZM29.7659 17.1155C29.7659 17.5262 29.4325 17.8596 29.0218 17.8596H27.5335C27.1227 17.8596 26.7893 17.5262 26.7893 17.1155V15.6272C26.7893 15.2164 27.1227 14.883 27.5335 14.883H29.0218C29.4325 14.883 29.7659 15.2164 29.7659 15.6272V17.1155Z" fill="#727272"/>
</svg>
